<svg width="180" height="50" viewBox="0 0 180 50" fill="none" xmlns="http://www.w3.org/2000/svg">
<path fill-rule="evenodd" clip-rule="evenodd" d="M0 0H180V1.46338C178.835 1.97818 178 3.36723 178 5C178 6.63277 178.835 8.02182 180 8.53662V11.4634C178.835 11.9782 178 13.3672 178 15C178 16.6328 178.835 18.0218 180 18.5366V21.4634C178.835 21.9782 178 23.3672 178 25C178 26.6328 178.835 28.0218 180 28.5366V31.4634C178.835 31.9782 178 33.3672 178 35C178 36.6328 178.835 38.0218 180 38.5366V41.4634C178.835 41.9782 178 43.3672 178 45C178 46.6328 178.835 48.0218 180 48.5366V50H0V48.5366C1.16519 48.0218 2 46.6328 2 45C2 43.3672 1.16519 41.9782 0 41.4634V38.5366C1.16519 38.0218 2 36.6328 2 35C2 33.3672 1.16519 31.9782 0 31.4634V28.5366C1.16519 28.0218 2 26.6328 2 25C2 23.3672 1.16519 21.9782 0 21.4634V18.5366C1.16519 18.0218 2 16.6328 2 15C2 13.3672 1.16519 11.9782 0 11.4634V8.53662C1.16519 8.02182 2 6.63277 2 5C2 3.36723 1.16519 1.97818 0 1.46338V0Z" fill="#F22727"/>
</svg>
