<svg width="26" height="26" viewBox="0 0 26 26" fill="none" xmlns="http://www.w3.org/2000/svg">
<path d="M21.2103 7.3125H4.78972C4.58977 7.3125 4.39684 7.38623 4.24785 7.51958C4.09886 7.65294 4.00427 7.83654 3.98219 8.03527L2.53775 21.0353C2.52513 21.1488 2.53661 21.2638 2.57143 21.3726C2.60626 21.4815 2.66365 21.5817 2.73986 21.6669C2.81607 21.752 2.90938 21.8201 3.0137 21.8668C3.11802 21.9134 3.23101 21.9375 3.34528 21.9375H22.6547C22.769 21.9375 22.882 21.9134 22.9863 21.8668C23.0906 21.8201 23.1839 21.752 23.2601 21.6669C23.3363 21.5817 23.3937 21.4815 23.4286 21.3726C23.4634 21.2638 23.4749 21.1488 23.4623 21.0353L22.0178 8.03527C21.9957 7.83654 21.9011 7.65294 21.7522 7.51958C21.6032 7.38623 21.4102 7.3125 21.2103 7.3125Z" stroke="white" stroke-width="1.5" stroke-linecap="round" stroke-linejoin="round"/>
<path d="M8.9375 10.5625V7.3125C8.9375 6.23506 9.36551 5.20175 10.1274 4.43988C10.8892 3.67801 11.9226 3.25 13 3.25C14.0774 3.25 15.1108 3.67801 15.8726 4.43988C16.6345 5.20175 17.0625 6.23506 17.0625 7.3125V10.5625" stroke="white" stroke-width="1.5" stroke-linecap="round" stroke-linejoin="round"/>
</svg>
