<svg width="32" height="36" viewBox="0 0 32 36" fill="none" xmlns="http://www.w3.org/2000/svg">
<path d="M22.01 23.7857C25.8409 17.7744 25.3593 18.5244 25.4697 18.3677C26.8644 16.4005 27.6016 14.0851 27.6016 11.6719C27.6016 5.27203 22.4082 0 16 0C9.61267 0 4.39844 5.26163 4.39844 11.6719C4.39844 14.0836 5.15106 16.4595 6.59148 18.4532L9.98983 23.7857C6.35643 24.3441 0.179688 26.008 0.179688 29.6719C0.179688 31.0075 1.05142 32.9108 5.20436 34.394C8.10419 35.4296 11.9381 36 16 36C23.5955 36 31.8203 33.8574 31.8203 29.6719C31.8203 26.0074 25.6508 24.3452 22.01 23.7857ZM8.35344 17.293C8.34185 17.2749 8.32973 17.2571 8.31709 17.2397C7.11848 15.5907 6.50781 13.6365 6.50781 11.6719C6.50781 6.39717 10.7551 2.10938 16 2.10938C21.234 2.10938 25.4922 6.39907 25.4922 11.6719C25.4922 13.6396 24.8931 15.5276 23.7593 17.1331C23.6577 17.2671 24.1877 16.4436 16 29.2914L8.35344 17.293ZM16 33.8906C7.70355 33.8906 2.28906 31.452 2.28906 29.6719C2.28906 28.4754 5.07119 26.5082 11.2362 25.7413L15.1105 31.8208C15.2058 31.9703 15.3373 32.0934 15.4927 32.1787C15.6482 32.264 15.8226 32.3087 15.9999 32.3087C16.1772 32.3087 16.3517 32.264 16.5071 32.1787C16.6626 32.0934 16.794 31.9703 16.8893 31.8208L20.7636 25.7413C26.9287 26.5082 29.7109 28.4754 29.7109 29.6719C29.7109 31.4369 24.3452 33.8906 16 33.8906Z" fill="white"/>
<path d="M16 6.39844C13.0922 6.39844 10.7266 8.7641 10.7266 11.6719C10.7266 14.5796 13.0922 16.9453 16 16.9453C18.9078 16.9453 21.2734 14.5796 21.2734 11.6719C21.2734 8.7641 18.9078 6.39844 16 6.39844ZM16 14.8359C14.2553 14.8359 12.8359 13.4165 12.8359 11.6719C12.8359 9.92721 14.2553 8.50781 16 8.50781C17.7447 8.50781 19.1641 9.92721 19.1641 11.6719C19.1641 13.4165 17.7447 14.8359 16 14.8359Z" fill="white"/>
</svg>
